# xmcd CD database file
#
# Track frame offsets:
#	150
#	6448
#	20666
#	30244
#	42365
#	51621
#	56407
#	67597
#	76545
#	85315
#	90714
#	101486
#	109838
#	116374
#	131187
#	140846
#	150700
#	161630
#	173067
#	205952
#
# Disc length: 3011 seconds
#
# Revision: 7
# Processed by: cddbd v1.5.2PL0 Copyright (c) Steve Scherf et al.
# Submitted via: CDex 1.51
#
DISCID=070bc114
DTITLE=Various Artist - Chorales d'enfants  {Chants de Noël}  [CD 2-5]
DYEAR=1900
DGENRE=Chants de Noël
TTITLE0=Finchley Children's Music Group with City of Prague Philharmonic - Les Choristes
TTITLE1=St-Petersburg Children's Choir - Funiculi Funicula
TTITLE2=Les petits chanteurs de Noël - La bal du tsar
TTITLE3=St-Petersburg Children's Choir - Santa Lucia
TTITLE4=Chorale du tsar Pierre Le Grand - Komarin melody
TTITLE5=Chorale du tsar Pierre Le Grand - Neopolitan song
TTITLE6=Les petits chanteurs de Noël - Les trois joyaux
TTITLE7=Chorale du tsar Pierre Le Grand - Lilac
TTITLE8=St-Petersburg Children's Choir - Sous le bouleau pleureur
TTITLE9=Chorale du tsar Pierre Le Grand - Le chant de l'alouette
TTITLE10=Chorale du tsar Pierre Le Grand - La source vive
TTITLE11=Chorale du tsar Pierre Le Grand - Wind is blowing outside
TTITLE12=Les petits chanteurs de Noël - L'écho des collines
TTITLE13=St-Petersburg Children's Choir - Les filles de Makarov
TTITLE14=St-Petersburg Children's Choir - Russian soldier's song
TTITLE15=Les petits chanteurs de Noël - La légende de la steppe
TTITLE16=Chorale du tsar Pierre Le Grand - Eternelle ritournelle
TTITLE17=St-Petersburg Children's Choir - Caro mio ben
TTITLE18=Les petits chanteurs de Noël - The nightingale cage bird
TTITLE19=St-Petersburg Children's Choir - Kalinka
EXTD=
EXTT0=
EXTT1=
EXTT2=
EXTT3=
EXTT4=
EXTT5=
EXTT6=
EXTT7=
EXTT8=
EXTT9=
EXTT10=
EXTT11=
EXTT12=
EXTT13=
EXTT14=
EXTT15=
EXTT16=
EXTT17=
EXTT18=
EXTT19=
PLAYORDER=
